# xmcd
#
# Track frame offsets:
#	150
#	14119
#	32792
#	43397
#	58911
#	78385
#	88702
#	98227
#	110609
#	127955
#	138686
#	155183
#	170873
#	184762
#	200174
#	211712
#	228659
#	243197
#	256706
#	266735
#	281417
#	296808
#	312342
#	331506
#	344953
#
# Disc length: 4823 seconds
#
# Revision: 1
# Processed by: cddbd v1.5.2PL0 Copyright (c) Steve Scherf et al.
# Submitted via: audiograbber 1.83.01
#
DISCID=8d12d519
DTITLE=Various Artist - All American Country Christmas
DYEAR=2019
DGENRE=Country
TTITLE0=Travis Tritt - All I Want for Christmas Dear Is You
TTITLE1=Lila McCann - Christmas Is Here Again
TTITLE2=Trick Pony - Winter Wonderland
TTITLE3=Clay Walker - Cowboy Christmas
TTITLE4=Georgia Middleman - O Come All Ye Faithful
TTITLE5=Little Texas - Here Comes Santa Claus
TTITLE6=Randy Travis - Santa Claus Is Coming to Town
TTITLE7=Chad Brock - Blue Christmas
TTITLE8=Dwight Yoakam - The Christmas Song (Chestnuts Roasting On an Open Fire)
TTITLE9=Jeff Foxworthy - Redneck 12 Days of Christmas
TTITLE10=John Michael Montgomery - My Christmas Wish
TTITLE11=Neal McCoy - Merry Christmas Darling
TTITLE12=Anita Cochran - Please Come Home for Christmas
TTITLE13=Tamra Rosanes - I Saw Mommy Kissing Santa Claus
TTITLE14=Bill Engvall - Here's Your Sign Christmas
TTITLE15=Kathie Lee Gifford - I'll Be Home for Christmas
TTITLE16=Michael Martin Murphey - Christmas Cowboy Style
TTITLE17=The Sky Kings - Christmas Everyday
TTITLE18=Chad Mullins - Christmas Angel
TTITLE19=John Prine - Christmas In Prison
TTITLE20=The Forester Sisters - White Christmas
TTITLE21=Dennis Robbins - Santa's On Vacation
TTITLE22=Ashley Monroe - Tennessee Christmas
TTITLE23=Holly Dunn - Feliz Navidad
TTITLE24=Emmy Rossum - Pretty Paper
EXTD=
EXTT0=
EXTT1=
EXTT2=
EXTT3=
EXTT4=
EXTT5=
EXTT6=
EXTT7=
EXTT8=
EXTT9=
EXTT10=
EXTT11=
EXTT12=
EXTT13=
EXTT14=
EXTT15=
EXTT16=
EXTT17=
EXTT18=
EXTT19=
EXTT20=
EXTT21=
EXTT22=
EXTT23=
EXTT24=
PLAYORDER=
